# xmcd
#
# Track frame offsets:
#	150
#	9021
#	24042
#	39254
#	48901
#	61962
#	67091
#	74938
#	81196
#	97226
#	114622
#	119926
#	128658
#	132099
#	138723
#	145990
#	156057
#	164935
#	179950
#	195117
#	204738
#	217818
#	222947
#	230794
#	237048
#	252983
#	270366
#	275669
#	284406
#	287844
#
# Disc length: 3924 seconds
#
# Revision: 1
# Processed by: cddbd v1.5PL3 Copyright (c) Steve Scherf et al.
# Submitted via: EasyCDDAExtractor 6.2.0.3
#
DISCID=db0f521e
DTITLE=Joyful City - 可喜可樂之城3
DYEAR=2003
DGENRE=
TTITLE0=可喜可樂之城主題曲
TTITLE1=我愛禱告
TTITLE2=獨有主
TTITLE3=誰人
TTITLE4=我要盡心
TTITLE5=我在這裡讚美
TTITLE6=我愛讚美祂
TTITLE7=我們的腳要跳舞
TTITLE8=耶穌主基督我愛你
TTITLE9=至高者的隱密處
TTITLE10=高唱主的愛
TTITLE11=神創造世界
TTITLE12=祂是萬王之王
TTITLE13=偉大奇妙神
TTITLE14=可喜可樂之城主題曲remix
TTITLE15=來吧主基督
TTITLE16=可喜可樂之城主題曲伴唱音樂
TTITLE17=我愛禱告伴唱音樂
TTITLE18=獨有主伴唱音樂
TTITLE19=誰人伴唱音樂
TTITLE20=我要盡心伴唱音樂
TTITLE21=我在這裡讚美伴唱音樂
TTITLE22=我愛讚美祂伴唱音樂
TTITLE23=我們的腳要跳舞伴唱音樂
TTITLE24=耶穌主基督我愛你伴唱音樂
TTITLE25=至高者的隱密處伴唱音樂
TTITLE26=高唱主的愛伴唱音樂
TTITLE27=神創造世界伴唱音樂
TTITLE28=祂是萬王之王伴唱音樂
TTITLE29=偉大奇妙神伴唱音樂
EXTD=
EXTT0=
EXTT1=
EXTT2=
EXTT3=
EXTT4=
EXTT5=
EXTT6=
EXTT7=
EXTT8=
EXTT9=
EXTT10=
EXTT11=
EXTT12=
EXTT13=
EXTT14=
EXTT15=
EXTT16=
EXTT17=
EXTT18=
EXTT19=
EXTT20=
EXTT21=
EXTT22=
EXTT23=
EXTT24=
EXTT25=
EXTT26=
EXTT27=
EXTT28=
EXTT29=
PLAYORDER=
